<svg width="200" height="60" viewBox="0 0 200 60" xmlns="http://www.w3.org/2000/svg">
  <!-- Fondo del logo -->
  <rect width="200" height="60" rx="8" fill="#ffffff"/>
  
  <!-- Icono de PautaPro - estilo moderno azul -->
  <g transform="translate(15, 10)">
    <!-- Círculo exterior -->
    <circle cx="20" cy="20" r="18" fill="#2563eb" opacity="0.1"/>
    <circle cx="20" cy="20" r="15" fill="#2563eb" opacity="0.2"/>
    
    <!-- Letra P estilizada -->
    <path d="M 12 8 L 12 32 L 18 32 L 18 24 L 24 24 C 28 24 31 21 31 16 C 31 11 28 8 24 8 Z M 18 14 L 22 14 C 23.5 14 24.5 15 24.5 16 C 24.5 17 23.5 18 22 18 L 18 18 Z" fill="#2563eb"/>
    
    <!-- Elementos de publicidad -->
    <rect x="35" y="12" width="3" height="16" rx="1.5" fill="#3b82f6"/>
    <rect x="40" y="8" width="3" height="24" rx="1.5" fill="#60a5fa"/>
    <rect x="45" y="15" width="3" height="10" rx="1.5" fill="#93c5fd"/>
  </g>
  
  <!-- Texto "PautaPro" -->
  <text x="75" y="25" font-family="Arial, sans-serif" font-size="18" font-weight="bold" fill="#1e40af">Pauta</text>
  <text x="115" y="25" font-family="Arial, sans-serif" font-size="18" font-weight="bold" fill="#2563eb">Pro</text>
  
  <!-- Tagline -->
  <text x="75" y="42" font-family="Arial, sans-serif" font-size="8" fill="#64748b">Publicidad Inteligente</text>
  
  <!-- Línea decorativa -->
  <line x1="75" y1="48" x2="140" y2="48" stroke="#3b82f6" stroke-width="1"/>
</svg>